# xmcd CD database file
#
# Track frame offsets:
#	150
#	15530
#	27560
#	47430
#	63195
#	78027
#	92445
#	108170
#	133610
#	148267
#	169405
#	187062
#	202900
#	230105
#	254642
#
# Disc length: 3862 seconds
#
# Revision: 0
# Processed by: cddbd v1.5.1PL0 Copyright (c) Steve Scherf et al.
# Submitted via: CDex 1.60beta1
#
DISCID=cb0f140f
DTITLE=The Stompers - Live Scrapbook 1979-1983
DYEAR=2001
DGENRE=Blues
TTITLE0=This Is Rock 'N' Roll
TTITLE1=Got to Get Next to the Girl Who's Next to You
TTITLE2=Boys on the Run
TTITLE3=Reaction
TTITLE4=Down to You
TTITLE5=Love Is a Stranger
TTITLE6=First Kiss
TTITLE7=You're the One
TTITLE8=Rock, Jump and Holler
TTITLE9=Shutdown
TTITLE10=Tearstains
TTITLE11=You're the One
TTITLE12=Streetrhythm
TTITLE13=Never Tell an Angel
TTITLE14=Coast to Coast
EXTD=YEAR: 2001
EXTT0=
EXTT1=
EXTT2=
EXTT3=
EXTT4=
EXTT5=
EXTT6=
EXTT7=
EXTT8=
EXTT9=
EXTT10=
EXTT11=
EXTT12=
EXTT13=
EXTT14=
PLAYORDER=
